<svg width="46" height="26" viewBox="0 0 46 26" fill="none" xmlns="http://www.w3.org/2000/svg">
<g opacity="0.8">
<path fill-rule="evenodd" clip-rule="evenodd" d="M6 13C6 11.3431 4.65685 10 3 10C1.34315 10 0 11.3431 0 13C0 14.6569 1.34315 16 3 16C4.65685 16 6 14.6569 6 13Z" fill="white"/>
<path fill-rule="evenodd" clip-rule="evenodd" d="M16 13C16 11.3431 14.6569 10 13 10C11.3431 10 10 11.3431 10 13C10 14.6569 11.3431 16 13 16C14.6569 16 16 14.6569 16 13Z" fill="white"/>
<path fill-rule="evenodd" clip-rule="evenodd" d="M26 13C26 11.3431 24.6569 10 23 10C21.3431 10 20 11.3431 20 13C20 14.6569 21.3431 16 23 16C24.6569 16 26 14.6569 26 13Z" fill="white"/>
<path fill-rule="evenodd" clip-rule="evenodd" d="M46 13C46 11.3431 44.6569 10 43 10C41.3431 10 40 11.3431 40 13C40 14.6569 41.3431 16 43 16C44.6569 16 46 14.6569 46 13Z" fill="white"/>
<path fill-rule="evenodd" clip-rule="evenodd" d="M36 13C36 11.3431 34.6569 10 33 10C31.3431 10 30 11.3431 30 13C30 14.6569 31.3431 16 33 16C34.6569 16 36 14.6569 36 13Z" fill="white"/>
<path fill-rule="evenodd" clip-rule="evenodd" d="M36 23C36 21.3431 34.6569 20 33 20C31.3431 20 30 21.3431 30 23C30 24.6569 31.3431 26 33 26C34.6569 26 36 24.6569 36 23Z" fill="white"/>
<path fill-rule="evenodd" clip-rule="evenodd" d="M36 3C36 1.34315 34.6569 0 33 0C31.3431 0 30 1.34315 30 3C30 4.65685 31.3431 6 33 6C34.6569 6 36 4.65685 36 3Z" fill="white"/>
</g>
</svg>
