<svg width="46" height="26" viewBox="0 0 46 26" fill="none" xmlns="http://www.w3.org/2000/svg">
<g opacity="0.8">
<path fill-rule="evenodd" clip-rule="evenodd" d="M40 13C40 14.6569 41.3431 16 43 16C44.6569 16 46 14.6569 46 13C46 11.3431 44.6569 10 43 10C41.3431 10 40 11.3431 40 13Z" fill="white"/>
<path fill-rule="evenodd" clip-rule="evenodd" d="M30 13C30 14.6569 31.3431 16 33 16C34.6569 16 36 14.6569 36 13C36 11.3431 34.6569 10 33 10C31.3431 10 30 11.3431 30 13Z" fill="white"/>
<path fill-rule="evenodd" clip-rule="evenodd" d="M20 13C20 14.6569 21.3431 16 23 16C24.6569 16 26 14.6569 26 13C26 11.3431 24.6569 10 23 10C21.3431 10 20 11.3431 20 13Z" fill="white"/>
<path fill-rule="evenodd" clip-rule="evenodd" d="M0 13C0 14.6569 1.34315 16 3 16C4.65685 16 6 14.6569 6 13C6 11.3431 4.65685 10 3 10C1.34315 10 0 11.3431 0 13Z" fill="white"/>
<path fill-rule="evenodd" clip-rule="evenodd" d="M10 13C10 14.6569 11.3431 16 13 16C14.6569 16 16 14.6569 16 13C16 11.3431 14.6569 10 13 10C11.3431 10 10 11.3431 10 13Z" fill="white"/>
<path fill-rule="evenodd" clip-rule="evenodd" d="M10 3C10 4.65685 11.3431 6 13 6C14.6569 6 16 4.65685 16 3C16 1.34315 14.6569 0 13 0C11.3431 0 10 1.34315 10 3Z" fill="white"/>
<path fill-rule="evenodd" clip-rule="evenodd" d="M10 23C10 24.6569 11.3431 26 13 26C14.6569 26 16 24.6569 16 23C16 21.3431 14.6569 20 13 20C11.3431 20 10 21.3431 10 23Z" fill="white"/>
</g>
</svg>
