<svg width="66" height="62" viewBox="0 0 66 62" fill="none" xmlns="http://www.w3.org/2000/svg">
<g id="Instagram">
<path id="Combined Shape" fill-rule="evenodd" clip-rule="evenodd" d="M33 0C14.7746 0 0 13.8792 0 31C0 48.1208 14.7746 62 33 62C51.2254 62 66 48.1208 66 31C66 13.8792 51.2254 0 33 0ZM25.7445 14.5666C27.6219 14.4863 28.2217 14.4667 33.0016 14.4667H32.9961C37.7775 14.4667 38.3752 14.4863 40.2526 14.5666C42.1262 14.6472 43.4059 14.9258 44.5279 15.3347C45.6866 15.7566 46.6656 16.3215 47.6446 17.2412C48.6236 18.1602 49.225 19.0826 49.676 20.17C50.1087 21.2213 50.4057 22.4227 50.4937 24.1829C50.578 25.9464 50.6 26.5099 50.6 31.0002C50.6 35.4904 50.578 36.0525 50.4937 37.8161C50.4057 39.5756 50.1087 40.7773 49.676 41.8289C49.225 42.916 48.6236 43.8384 47.6446 44.7574C46.6667 45.6771 45.6862 46.2434 44.529 46.6657C43.4092 47.0745 42.1288 47.3532 40.2551 47.4338C38.3778 47.514 37.7797 47.5337 32.9995 47.5337C28.2199 47.5337 27.6204 47.514 25.743 47.4338C23.8697 47.3532 22.5904 47.0745 21.4706 46.6657C20.3138 46.2434 19.3318 45.6771 18.3539 44.7574C17.3753 43.8384 16.7739 42.916 16.324 41.8286C15.8891 40.7773 15.5925 39.5759 15.5063 37.8158C15.4213 36.0522 15.4 35.4904 15.4 31.0002C15.4 26.5099 15.422 25.9461 15.506 24.1825C15.5903 22.4231 15.8873 21.2213 16.3236 20.1697C16.7746 19.0826 17.376 18.1602 18.355 17.2412C19.3333 16.3219 20.3152 15.757 21.4728 15.3347C22.5919 14.9258 23.8708 14.6472 25.7445 14.5666Z" fill="#02E677"/>
<path id="Combined Shape_2" fill-rule="evenodd" clip-rule="evenodd" d="M31.4227 17.446C31.7293 17.4456 32.0591 17.4457 32.415 17.4459L33.0016 17.446C37.7009 17.446 38.2578 17.4619 40.1135 17.5411C41.8296 17.6148 42.7609 17.8842 43.3813 18.1105C44.2027 18.4101 44.7882 18.7684 45.4039 19.347C46.0199 19.9257 46.4012 20.4768 46.7209 21.2484C46.9618 21.8305 47.249 22.7054 47.3271 24.3174C47.4114 26.0603 47.4297 26.5839 47.4297 30.9963C47.4297 35.4086 47.4114 35.9322 47.3271 37.6751C47.2486 39.2871 46.9618 40.162 46.7209 40.7441C46.4019 41.5157 46.0199 42.0651 45.4039 42.6434C44.7879 43.2221 44.203 43.5803 43.3813 43.88C42.7616 44.1073 41.8296 44.376 40.1135 44.4497C38.2582 44.5289 37.7009 44.5462 33.0016 44.5462C28.302 44.5462 27.745 44.5289 25.8897 44.4497C24.1736 44.3753 23.2423 44.106 22.6215 43.8797C21.8002 43.58 21.2135 43.2218 20.5975 42.6431C19.9815 42.0644 19.6002 41.5147 19.2804 40.7428C19.0395 40.1607 18.7524 39.2858 18.6743 37.6737C18.59 35.9308 18.5731 35.4073 18.5731 30.9921C18.5731 26.577 18.59 26.0562 18.6743 24.3133C18.7528 22.7013 19.0395 21.8264 19.2804 21.2436C19.5994 20.472 19.9815 19.9209 20.5975 19.3422C21.2135 18.7635 21.8002 18.4053 22.6215 18.105C23.2419 17.8776 24.1736 17.609 25.8897 17.5349C27.5133 17.466 28.1425 17.4453 31.4227 17.4419V17.446ZM42.3964 20.1913C41.2304 20.1913 40.2844 21.0789 40.2844 22.1746C40.2844 23.27 41.2304 24.1586 42.3964 24.1586C43.5624 24.1586 44.5085 23.27 44.5085 22.1746C44.5085 21.0793 43.5624 20.1906 42.3964 20.1906V20.1913ZM23.9632 31.0001C23.9632 26.3112 28.0099 22.5096 33.0012 22.5094C37.9927 22.5094 42.0386 26.3111 42.0386 31.0001C42.0386 35.689 37.9931 39.489 33.0016 39.489C28.0101 39.489 23.9632 35.689 23.9632 31.0001Z" fill="#00E676"/>
<path id="Shape" fill-rule="evenodd" clip-rule="evenodd" d="M33.0016 25.4888C36.2415 25.4888 38.8683 27.9561 38.8683 30.9999C38.8683 34.0435 36.2415 36.5111 33.0016 36.5111C29.7613 36.5111 27.1349 34.0435 27.1349 30.9999C27.1349 27.9561 29.7613 25.4888 33.0016 25.4888V25.4888Z" fill="#00E676"/>
</g>
</svg>
