<svg xmlns="http://www.w3.org/2000/svg" width="306.257" height="306.257"><path d="M19.747 121.968v70.068c0 21.499 17.43 38.924 38.924 38.924h40.703l112.088 73.612c11.351 6.271 26.808-5.883 34.372-21.256L47.261 84.75c-15.928 4.878-27.514 19.688-27.514 37.218zm230.639-80.152c0-21.5-19.464-51.253-38.924-38.924L108.71 76.499l141.676 141.677V41.816zM55.463 83.202l193.146 193.145 18.88 18.874a17.667 17.667 0 0012.547 5.204 17.69 17.69 0 0012.552-5.204c6.934-6.929 6.934-18.17 0-25.104l-42.197-42.197L103.037 80.566 38.771 16.314a17.671 17.671 0 00-12.549-5.204 17.688 17.688 0 00-12.552 5.204c-6.937 6.928-6.937 18.17 0 25.101l41.793 41.787z"/></svg>